#!OML:ASF F:\VICON\USERDATA\INSTALL\rory3\rory3.ASF
:FULLY-SPECIFIED
:DEGREES
72
root -0.12174117666585266 17.844319754555464 13.425959028623058 3.4567688738572264 -2.9735771048831534 -2.13727045490423
lfemur 2.3249854015274884 -1.4845774555620599 -20.392458509476764
ltibia 75.65499728396553
lfoot 2.2382834112216763 -7.641679841552047
ltoes -17.4999961981327
rfemur -23.893677176546685 2.3297204957390814 30.762316894049643
rtibia 39.4043313978344
rfoot -0.3589407267581306 -6.225717696064723
rtoes -9.242927854190643
lowerback 14.873339501270761 0.15011378248888219 0.9160400976756299
upperback -1.2085170080209846 0.36523915338593227 2.12971185974816
thorax -10.100753542044412 0.2595394690207039 3.1868015632949804
lowerneck -20.380919753596885 -2.743772299327055 -1.7992945888976386
upperneck 14.536517401437209 -3.4686001696201876 1.8367651527935633
head 7.865044817295548 -1.582532726575862 0.47456344629504743
lclavicle 7.933867047007192e-17 -3.510693723794119e-16
lhumerus -42.570314547756475 -18.74530944681177 97.40228011394511
lradius 104.40836023817842
lwrist 32.70513862168996
lhand -24.106245134008088 1.5256687185753797
lfingers 7.12502
lthumb 2.6345691281186348 31.569925923692807
rclavicle 7.93386705684328e-17 -3.510693723071479e-16
rhumerus -58.906308813317054 3.3229686061983577 -93.69082341664907
rradius 109.87095135809797
rwrist -9.361649030323864
rhand -16.960816004832278 40.49365592486076
rfingers 7.12502
rthumb 9.186258438132233 10.334800821442709
73
root -0.11871235219210445 17.783704914951972 13.823922688765323 3.2716617308812563 -2.9455657488434976 -2.286974284842788
lfemur 0.8171352768953426 -1.0219697494695905 -19.7137206401184
ltibia 78.98875110856136
lfoot 2.4991655298424047 -7.573551717712332
ltoes -16.117016306418876
rfemur -22.328187869135927 2.584823543281082 31.060868496754402
rtibia 41.31431568857187
rfoot -1.0737528455488867 -6.34370483127629
rtoes -10.04906123550948
lowerback 14.989899887554923 0.26709538873103367 1.1037987303742398
upperback -1.1329141656072246 0.5647043782352343 2.1059680755369907
thorax -10.1821232120836 0.3524741870120338 2.9612754666218866
lowerneck -20.49284492401256 -2.813148865203458 -1.7419920394204786
upperneck 14.29624710114532 -3.570083392506796 1.8154059565686196
head 7.754455509528692 -1.6453629546668722 0.4637891690328272
lclavicle 7.933867046870562e-17 -3.510693723807647e-16
lhumerus -42.37990290313729 -18.983693348238713 97.54760523490502
lradius 103.4144481681688
lwrist 32.683067244532495
lhand -24.20283234842626 1.5419857339490883
lfingers 7.12502
lthumb 2.571831037494973 31.753502324904197
rclavicle 7.933867057087844e-17 -3.5106937230556227e-16
rhumerus -58.41778318998012 3.28024435745822 -93.62821235671342
rradius 109.76540223042946
rwrist -9.107624504757627
rhand -16.98217384756152 40.265855200986344
rfingers 7.12502
rthumb 9.184762888049626 10.090268981143662
74
root -0.11068890099096829 17.715780810142622 14.30032442207602 3.0911488269125584 -2.8955218390373973 -2.4221215946445303
lfemur -0.7434087681127863 -0.5117195063603691 -19.034846428256888
ltibia 82.09388931272258
lfoot 2.57013701447251 -7.625052074541531
ltoes -14.986742203541425
rfemur -20.790716278667507 2.8588107223512127 31.33590506183083
rtibia 43.291370385363955
rfoot -1.6846628709001505 -6.2943566280008065
rtoes -10.711513676964824
lowerback 15.096037635063809 0.3805761930259321 1.2790401217184066
upperback -1.089173381812712 0.7636626774029912 2.0868141515975633
thorax -10.278623121335078 0.4459112566786435 2.7082009345406357
lowerneck -20.586196030158334 -2.879077840562831 -1.6857267090859882
upperneck 14.035667741441987 -3.66136996880814 1.7919498346832596
head 7.64705035106477 -1.70194519592087 0.4464987886893822
lclavicle 7.933867046747841e-17 -3.510693723820853e-16
lhumerus -42.27131730885611 -19.073814944010877 97.67073600856965
lradius 102.61189832211097
lwrist 32.709558892595105
lhand -24.15762523385025 1.8183241906585634
lfingers 7.12502
lthumb 2.4329680840398216 31.695886415881
rclavicle 7.933867057473459e-17 -3.510693723029901e-16
rhumerus -57.88707582641177 3.310100971630347 -93.59484526368757
rradius 109.64660023492341
rwrist -8.888099981308585
rhand -17.00663185706357 40.052295098865365
rfingers 7.12502
rthumb 9.154764121629704 9.842373864839965
75
root -0.1157501763265089 17.644642986091814 14.749438940448123 2.9454586177101447 -2.851715198212797 -2.560308659860713
lfemur -2.406160298041579 0.04761261325018773 -18.344347979812095
ltibia 84.9840875545264
lfoot 3.025984653617237 -7.416305014012227
ltoes -13.528043636404615
rfemur -19.28495636936783 3.2091081051185126 31.599798949628898
rtibia 45.32359662510129
rfoot -2.3209496441193584 -6.2662627471324255
rtoes -9.93465671857598
lowerback 15.229178017475219 0.5019744468898764 1.414905018336689
upperback -1.023030589844007 0.9697785573239627 2.0873048935214733
thorax -10.390203389209672 0.5248351013674752 2.5102879990949765
lowerneck -20.67447939947185 -2.939294144376552 -1.6372321645229304
upperneck 13.768881331368982 -3.7424439561372704 1.7654234835627456
head 7.536102023310433 -1.7543244381023815 0.4263580936381509
lclavicle 7.933867046720301e-17 -3.5106937238277997e-16
lhumerus -42.16371245002981 -19.18114515952822 97.77490410178184
lradius 101.94484397907388
lwrist 32.77563642094799
lhand -24.232716195893826 1.8943411719983556
lfingers 7.12502
lthumb 2.3217396744916137 31.68521024516409
rclavicle 7.93386705788424e-17 -3.5106937230031e-16
rhumerus -57.2816585499693 3.4138983658637514 -93.58230094251762
rradius 109.51570721351928
rwrist -8.707137029358812
rhand -17.019828784420465 39.85169526381402
rfingers 7.12502
rthumb 9.125990339642224 9.614229031647302
